<svg width="1400" height="1000" viewBox="0 0 1400 1000" fill="none" xmlns="http://www.w3.org/2000/svg">
  <defs>
    <linearGradient id="brainStroke" x1="360" y1="220" x2="1040" y2="780" gradientUnits="userSpaceOnUse">
      <stop offset="0" stop-color="#F4EFE8"/>
      <stop offset="0.45" stop-color="#E67A5A"/>
      <stop offset="1" stop-color="#A2B7A9"/>
    </linearGradient>
    <linearGradient id="circuitStroke" x1="180" y1="180" x2="1220" y2="860" gradientUnits="userSpaceOnUse">
      <stop offset="0" stop-color="#F18462"/>
      <stop offset="1" stop-color="#9EB7A8"/>
    </linearGradient>
    <radialGradient id="glow" cx="0" cy="0" r="1" gradientUnits="userSpaceOnUse" gradientTransform="translate(700 500) rotate(90) scale(360 420)">
      <stop offset="0" stop-color="#E97453" stop-opacity="0.35"/>
      <stop offset="1" stop-color="#E97453" stop-opacity="0"/>
    </radialGradient>
    <filter id="softGlow" x="-20%" y="-20%" width="140%" height="140%">
      <feGaussianBlur stdDeviation="4"/>
    </filter>
  </defs>

  <rect width="1400" height="1000" fill="transparent"/>
  <ellipse cx="700" cy="500" rx="420" ry="340" fill="url(#glow)"/>

  <g stroke-linecap="round" stroke-linejoin="round">
    <!-- Brain outer contour -->
    <path d="M700 220C621 179 491 215 438 327C395 420 426 540 530 606C575 635 604 690 602 748H700V220Z" stroke="url(#brainStroke)" stroke-width="9"/>
    <path d="M700 220C779 179 909 215 962 327C1005 420 974 540 870 606C825 635 796 690 798 748H700V220Z" stroke="url(#brainStroke)" stroke-width="9"/>
    <path d="M602 748C624 792 658 816 700 816C742 816 776 792 798 748" stroke="url(#brainStroke)" stroke-width="9"/>

    <!-- Left hemisphere folds -->
    <path d="M658 278C595 270 515 302 483 365" stroke="url(#brainStroke)" stroke-width="6"/>
    <path d="M648 338C584 334 523 364 492 421" stroke="url(#brainStroke)" stroke-width="6"/>
    <path d="M646 402C578 404 534 441 514 494" stroke="url(#brainStroke)" stroke-width="6"/>
    <path d="M652 470C595 483 557 524 543 573" stroke="url(#brainStroke)" stroke-width="6"/>
    <path d="M664 542C617 565 594 608 592 654" stroke="url(#brainStroke)" stroke-width="6"/>

    <!-- Right hemisphere folds -->
    <path d="M742 278C805 270 885 302 917 365" stroke="url(#brainStroke)" stroke-width="6"/>
    <path d="M752 338C816 334 877 364 908 421" stroke="url(#brainStroke)" stroke-width="6"/>
    <path d="M754 402C822 404 866 441 886 494" stroke="url(#brainStroke)" stroke-width="6"/>
    <path d="M748 470C805 483 843 524 857 573" stroke="url(#brainStroke)" stroke-width="6"/>
    <path d="M736 542C783 565 806 608 808 654" stroke="url(#brainStroke)" stroke-width="6"/>

    <!-- Midline -->
    <path d="M700 242V740" stroke="url(#brainStroke)" stroke-width="5"/>
  </g>

  <!-- Circuit traces -->
  <g stroke="url(#circuitStroke)" stroke-width="5" fill="none" stroke-linecap="round" opacity="0.95">
    <path d="M306 322H430"/>
    <path d="M232 450H474"/>
    <path d="M270 592H524"/>
    <path d="M355 726H596"/>
    <path d="M970 304H1114"/>
    <path d="M914 434H1176"/>
    <path d="M888 574H1140"/>
    <path d="M820 712H1086"/>
    <path d="M430 322V270H230"/>
    <path d="M474 450V404H188"/>
    <path d="M524 592V650H260"/>
    <path d="M596 726V792H332"/>
    <path d="M970 304V254H1178"/>
    <path d="M914 434V390H1210"/>
    <path d="M888 574V626H1182"/>
    <path d="M820 712V768H1126"/>
  </g>

  <!-- Nodes -->
  <g fill="#F28A67">
    <circle cx="230" cy="270" r="10"/>
    <circle cx="188" cy="404" r="10"/>
    <circle cx="260" cy="650" r="10"/>
    <circle cx="332" cy="792" r="10"/>
    <circle cx="1178" cy="254" r="10"/>
    <circle cx="1210" cy="390" r="10"/>
    <circle cx="1182" cy="626" r="10"/>
    <circle cx="1126" cy="768" r="10"/>
  </g>

  <g fill="#A5BEAE">
    <circle cx="306" cy="322" r="7"/>
    <circle cx="270" cy="592" r="7"/>
    <circle cx="970" cy="304" r="7"/>
    <circle cx="820" cy="712" r="7"/>
  </g>

  <!-- Neuro waveform -->
  <path d="M282 874H406L442 802L484 930L535 744L592 888L649 690L703 852L760 736L824 900L884 804L944 866H1114" stroke="url(#circuitStroke)" stroke-width="7" stroke-linecap="round" stroke-linejoin="round" opacity="0.84"/>

  <!-- Soft accent points -->
  <g filter="url(#softGlow)" fill="#F08D69" opacity="0.45">
    <circle cx="558" cy="356" r="10"/>
    <circle cx="838" cy="462" r="10"/>
    <circle cx="644" cy="604" r="10"/>
    <circle cx="744" cy="664" r="10"/>
  </g>
</svg>
